<svg width="519" height="152" viewBox="0 0 519 152" fill="none" xmlns="http://www.w3.org/2000/svg">
<path d="M118.905 125V1.69277e-05H145.905V101.5H209.305V125H118.905Z" fill="#F30E29"/>
<path d="M182.305 94L182.678 4.72069e-05H209.878L247.678 77.4001L285.478 4.72069e-05H312.478V125H285.478V45L255.478 106.6H239.878L209.678 45L209.305 94H182.305Z" fill="#F30E29"/>
<path d="M321.931 128.8V2.55108e-05L426.432 0V21L345.617 21V54H396.631V74.8H345.617V108H366.631V128.8H321.931Z" fill="#F30E29"/>
<path d="M373.631 128.8L420.231 64.2L394.632 28H426.432L436.431 43L466.231 3.77893e-05H498.031L452.631 64.2L519 152H486.8L436.431 85.8L405.831 128.8H373.631Z" fill="#F30E29"/>
<path d="M0 2.45571e-05V152H26V77.4001H75.2V54H26V24H82.6H109.6V2.45571e-05H82.6H0Z" fill="#F30E29"/>
<path d="M82.6 128.8H109.6V24H82.6V128.8Z" fill="#F30E29"/>
</svg>
